<svg width="11" height="12" viewBox="0 0 11 12" fill="none" xmlns="http://www.w3.org/2000/svg">
<path d="M9.70853 5.02642C9.67836 5.00467 9.64231 5.01638 9.60963 5.01638C9.3741 5.01554 9.13857 5.01805 8.90304 5.01471C8.71194 5.0122 8.56945 4.86585 8.56861 4.67768C8.56777 4.48533 8.70523 4.33982 8.89885 4.33898C9.45959 4.33647 10.0203 4.33647 10.5819 4.33898C10.7688 4.33982 10.9088 4.48199 10.9096 4.67099C10.9122 5.22713 10.9122 5.78327 10.9096 6.33941C10.9088 6.53259 10.7638 6.67309 10.5735 6.67392C10.3782 6.67476 10.2341 6.53343 10.2316 6.33439C10.229 6.06928 10.2307 5.80417 10.2307 5.53656C10.1771 5.5374 10.1586 5.57586 10.1335 5.60095C9.60376 6.12782 9.07654 6.6572 8.54514 7.18156C8.47892 7.24679 8.4697 7.28777 8.52418 7.36889C9.47803 8.79896 8.61219 10.7308 6.90901 10.98C5.63666 11.1665 4.42381 10.26 4.25198 8.99382C4.08016 7.73101 4.93175 6.5627 6.18483 6.35697C6.80173 6.25578 7.37588 6.37955 7.89555 6.73163C7.94416 6.76508 7.97685 6.7793 8.02714 6.72912C8.57615 6.178 9.12767 5.62855 9.67836 5.0791C9.69261 5.06405 9.71272 5.05318 9.70853 5.02642ZM6.58045 7.00594C5.66264 7.02768 4.93594 7.71763 4.93175 8.64926C4.92839 9.58257 5.64923 10.3026 6.58715 10.3018C7.49741 10.301 8.21825 9.60348 8.22998 8.67853C8.24172 7.74606 7.52759 7.02935 6.58045 7.00594Z" fill="#5F5F5F"/>
<path d="M5.20084 5.6803C4.77001 5.68197 4.33416 5.54315 3.94022 5.27553C3.87735 5.23288 3.84383 5.2379 3.7927 5.28975C3.43731 5.64852 3.08025 6.00562 2.71983 6.36021C2.65696 6.4221 2.66032 6.4614 2.72234 6.51911C2.84555 6.63535 2.96458 6.75662 3.08276 6.87788C3.23531 7.03343 3.24453 7.25003 3.1079 7.38719C2.96961 7.52601 2.75503 7.51932 2.59829 7.36712C2.47424 7.24669 2.35019 7.12543 2.23201 6.99998C2.17585 6.94144 2.13729 6.93977 2.0803 6.99914C1.89925 7.18564 1.71317 7.36628 1.53045 7.55027C1.44831 7.63306 1.3536 7.68407 1.23457 7.67404C1.0946 7.66233 0.994017 7.59124 0.941212 7.45995C0.887569 7.32446 0.913552 7.19902 1.0133 7.09532C1.16668 6.93559 1.3251 6.78087 1.48184 6.62448C1.66791 6.43882 1.66791 6.43882 1.48351 6.25484C1.39551 6.16703 1.30582 6.08005 1.21949 5.99057C1.07616 5.84087 1.07113 5.63347 1.20524 5.49715C1.3427 5.35749 1.55476 5.35833 1.70731 5.50468C1.8322 5.62427 1.95625 5.74553 2.07359 5.87181C2.13729 5.94123 2.17836 5.93203 2.24039 5.86931C2.59075 5.51471 2.94278 5.16263 3.29817 4.8139C3.36271 4.75117 3.35768 4.71187 3.31074 4.64162C2.6863 3.71165 2.80365 2.46055 3.60746 1.68614C4.26543 1.05139 5.05667 0.842314 5.93508 1.10909C6.81182 1.37504 7.35999 1.98303 7.55361 2.87703C7.83943 4.19838 6.91994 5.47374 5.56964 5.66023C5.46235 5.67528 5.35506 5.67612 5.20084 5.6803ZM5.25867 4.99872C6.17648 4.97363 6.8948 4.28368 6.90067 3.35957C6.90653 2.4179 6.1748 1.69785 5.23856 1.7037C4.30985 1.70956 3.60243 2.42961 3.60243 3.34285C3.60159 4.27866 4.32326 4.98032 5.25867 4.99872Z" fill="#5F5F5F"/>
</svg>
