<svg width="9" height="10" viewBox="0 0 9 10" fill="none" xmlns="http://www.w3.org/2000/svg">
<path d="M4.29886 0.000777875C6.18755 -0.0172528 7.90686 1.29268 8.27373 3.23008C8.52827 4.57427 8.1777 5.77061 7.22566 6.75959C6.36691 7.65121 5.47465 8.51128 4.59688 9.38486C4.43111 9.54984 4.23545 9.54804 4.06787 9.38216C3.20187 8.52119 2.33317 7.66293 1.47261 6.79655C0.808621 6.12852 0.433599 5.31984 0.336673 4.38405C0.11927 2.27535 1.62298 0.355081 3.73633 0.0404455C3.93561 0.0115963 4.1349 -0.0037298 4.29886 0.000777875ZM7.64597 3.99458C7.65231 3.78272 7.63057 3.57447 7.5889 3.36801C7.23925 1.63707 5.64857 0.50113 3.89304 0.725613C2.36849 0.920344 1.15103 2.17709 1.03055 3.69978C0.950839 4.71401 1.26426 5.59932 1.98532 6.32685C2.73536 7.08414 3.49628 7.83152 4.24994 8.5861C4.31516 8.65192 4.3514 8.65192 4.41752 8.5861C5.17119 7.83152 5.9312 7.08414 6.68215 6.32685C7.32168 5.68226 7.63963 4.90063 7.64597 3.99458Z" fill="#5F5F5F"/>
<path d="M6.02903 3.80074C6.02903 4.72662 5.27083 5.48661 4.34234 5.49112C3.4066 5.49563 2.63844 4.73113 2.63844 3.79533C2.63844 2.85413 3.39573 2.10225 4.34143 2.10315C5.27717 2.10405 6.02812 2.86044 6.02903 3.80074ZM4.33328 2.80455C3.78071 2.80364 3.32235 3.2472 3.33232 3.79623C3.34319 4.41379 3.82963 4.78883 4.33419 4.79153C4.81429 4.79333 5.32609 4.43092 5.33515 3.79623C5.3424 3.24359 4.88766 2.80545 4.33328 2.80455Z" fill="#5F5F5F"/>
</svg>
